<?xml version="1.0" encoding="UTF-8"?>
<svg id="Camada_1" data-name="Camada 1" xmlns="http://www.w3.org/2000/svg" viewBox="0 0 107.72 87.95">
  <defs>
    <style>
      .cls-1 {
        fill: #d4ad77;
      }

      .cls-1, .cls-2 {
        font-size: 64.86px;
      }

      .cls-1, .cls-2, .cls-3 {
        font-family: ForeignerBoldItalicBoldItalic, Foreigner-BoldItalic;
      }

      .cls-4 {
        fill: #fff;
      }

      .cls-3 {
        fill: none;
        font-size: 15.35px;
        stroke: #fff;
        stroke-miterlimit: 10;
        stroke-width: .51px;
      }
    </style>
  </defs>
  <text class="cls-3" transform="translate(24.58 84.29)"><tspan x="0" y="0">DESIGN</tspan></text>
  <g>
    <text class="cls-2" transform="translate(7.79 55.07)"><tspan x="0" y="0">AS</tspan></text>
    <g>
      <g>
        <path class="cls-4" d="M46.02,67.39c-2.58,0-4.76-1.92-5.09-4.48l-.66-5.18h-10.04l-3.92,7.03c-.91,1.63-2.62,2.63-4.48,2.63h-13.1c-1.85,0-3.55-.99-4.46-2.59-.91-1.6-.89-3.58.05-5.16L31.23,14.36c.93-1.56,2.6-2.51,4.41-2.51h15.17c2.52,0,4.66,1.82,5.07,4.31l7.39,45.27c.24,1.49-.18,3-1.15,4.15-.97,1.15-2.41,1.81-3.91,1.81h-12.19Z"/>
        <path class="cls-4" d="M76.45,68.16c-2.5,0-5.17-.25-7.94-.74-2.69-.48-5.25-1.09-7.61-1.83-2.7-.84-4.21-3.71-3.37-6.42l2.85-9.22c.47-1.53,1.64-2.75,3.14-3.3.57-.21,1.17-.31,1.76-.31.97,0,1.94.28,2.77.81.38.24,1.32.72,3.35,1.18,1.76.4,3.46.6,5.04.6,1.16,0,2.22-.1,3.17-.29-.88-.4-2.06-.92-3.66-1.58-3.81-1.58-6.66-3.35-8.72-5.43-2.54-2.56-3.83-6.01-3.83-10.27,0-9.03,4.48-13.68,8.24-15.99,4.66-2.86,10.4-4.31,17.07-4.31,7.21,0,12.46.82,16.05,2.5,2.34,1.1,3.5,3.77,2.71,6.23l-2.91,9.01c-.45,1.4-1.49,2.54-2.84,3.13-.65.28-1.35.42-2.04.42-.75,0-1.49-.16-2.18-.49-2.06-.97-4.44-1.5-7.1-1.58.72.32,1.45.64,2.18.96,2.86,1.23,5.35,3.01,7.42,5.29,2.45,2.71,3.7,6.32,3.7,10.73,0,5.19-1.5,9.5-4.47,12.81-2.75,3.07-6.3,5.24-10.55,6.46-3.77,1.08-7.88,1.62-12.22,1.62Z"/>
      </g>
      <g>
        <path class="cls-4" d="M45.5,66.36c-2.58,0-4.76-1.92-5.09-4.48l-.66-5.18h-10.04l-3.92,7.03c-.91,1.63-2.62,2.63-4.48,2.63h-13.1c-1.85,0-3.55-.99-4.46-2.59-.91-1.6-.89-3.58.05-5.16L30.72,13.33c.93-1.56,2.6-2.51,4.41-2.51h15.17c2.52,0,4.66,1.82,5.07,4.31l7.39,45.27c.24,1.49-.18,3-1.15,4.15-.97,1.15-2.41,1.81-3.91,1.81h-12.19Z"/>
        <path class="cls-4" d="M75.94,67.14c-2.5,0-5.17-.25-7.94-.74-2.69-.48-5.25-1.09-7.61-1.83-2.7-.84-4.21-3.71-3.37-6.42l2.85-9.22c.47-1.53,1.64-2.75,3.14-3.3.57-.21,1.17-.31,1.76-.31.97,0,1.94.28,2.77.81.38.24,1.32.72,3.35,1.18,1.76.4,3.46.6,5.04.6,1.16,0,2.22-.1,3.17-.29-.88-.4-2.06-.92-3.66-1.58-3.81-1.58-6.66-3.35-8.72-5.43-2.54-2.56-3.83-6.01-3.83-10.27,0-9.03,4.48-13.68,8.24-15.99,4.66-2.86,10.4-4.31,17.07-4.31,7.21,0,12.46.82,16.05,2.5,2.34,1.1,3.5,3.77,2.71,6.23l-2.91,9.01c-.45,1.4-1.49,2.54-2.84,3.13-.65.28-1.35.42-2.04.42-.75,0-1.49-.16-2.18-.49-2.06-.97-4.44-1.5-7.1-1.58.72.32,1.45.64,2.18.96,2.86,1.23,5.35,3.01,7.42,5.29,2.45,2.71,3.7,6.32,3.7,10.73,0,5.19-1.5,9.5-4.47,12.81-2.75,3.07-6.3,5.24-10.55,6.46-3.77,1.08-7.88,1.62-12.22,1.62Z"/>
      </g>
      <g>
        <path class="cls-4" d="M44.99,65.33c-2.58,0-4.76-1.92-5.09-4.48l-.66-5.18h-10.04l-3.92,7.03c-.91,1.63-2.62,2.63-4.48,2.63H7.7c-1.85,0-3.55-.99-4.46-2.59-.91-1.6-.89-3.58.05-5.16L30.21,12.3c.93-1.56,2.6-2.51,4.41-2.51h15.17c2.52,0,4.66,1.82,5.07,4.31l7.39,45.27c.24,1.49-.18,3-1.15,4.15-.97,1.15-2.41,1.81-3.91,1.81h-12.19Z"/>
        <path class="cls-4" d="M75.43,66.11c-2.5,0-5.17-.25-7.94-.74-2.69-.48-5.25-1.09-7.61-1.83-2.7-.84-4.21-3.71-3.37-6.42l2.85-9.22c.47-1.53,1.64-2.75,3.14-3.3.57-.21,1.17-.31,1.76-.31.97,0,1.94.28,2.77.81.38.24,1.32.72,3.35,1.18,1.76.4,3.46.6,5.04.6,1.16,0,2.22-.1,3.17-.29-.88-.4-2.06-.92-3.66-1.58-3.81-1.58-6.66-3.35-8.72-5.43-2.54-2.56-3.83-6.01-3.83-10.27,0-9.03,4.48-13.68,8.24-15.99,4.66-2.86,10.4-4.31,17.07-4.31,7.21,0,12.46.82,16.05,2.5,2.34,1.1,3.5,3.77,2.71,6.23l-2.91,9.01c-.45,1.4-1.49,2.54-2.84,3.13-.65.28-1.35.42-2.04.42-.75,0-1.49-.16-2.18-.49-2.06-.97-4.44-1.5-7.1-1.58.72.32,1.45.64,2.18.96,2.86,1.23,5.35,3.01,7.42,5.29,2.45,2.71,3.7,6.32,3.7,10.73,0,5.19-1.5,9.5-4.47,12.81-2.75,3.07-6.3,5.24-10.55,6.46-3.77,1.08-7.88,1.62-12.22,1.62Z"/>
      </g>
      <g>
        <path class="cls-4" d="M44.48,64.31c-2.58,0-4.76-1.92-5.09-4.48l-.66-5.18h-10.04l-3.92,7.03c-.91,1.63-2.62,2.63-4.48,2.63H7.19c-1.85,0-3.55-.99-4.46-2.59-.91-1.6-.89-3.58.05-5.16L29.69,11.28c.93-1.56,2.6-2.51,4.41-2.51h15.17c2.52,0,4.66,1.82,5.07,4.31l7.39,45.27c.24,1.49-.18,3-1.15,4.15-.97,1.15-2.41,1.81-3.91,1.81h-12.19Z"/>
        <path class="cls-4" d="M74.91,65.08c-2.5,0-5.17-.25-7.94-.74-2.69-.48-5.25-1.09-7.61-1.83-2.7-.84-4.21-3.71-3.37-6.42l2.85-9.22c.47-1.53,1.64-2.75,3.14-3.3.57-.21,1.17-.31,1.76-.31.97,0,1.94.28,2.77.81.38.24,1.32.72,3.35,1.18,1.76.4,3.46.6,5.04.6,1.16,0,2.22-.1,3.17-.29-.88-.4-2.06-.92-3.66-1.58-3.81-1.58-6.66-3.35-8.72-5.43-2.54-2.56-3.83-6.01-3.83-10.27,0-9.03,4.48-13.68,8.24-15.99,4.66-2.86,10.4-4.31,17.07-4.31,7.21,0,12.46.82,16.05,2.5,2.34,1.1,3.5,3.77,2.71,6.23l-2.91,9.01c-.45,1.4-1.49,2.54-2.84,3.13-.65.28-1.35.42-2.04.42-.75,0-1.49-.16-2.18-.49-2.06-.97-4.44-1.5-7.1-1.58.72.32,1.45.64,2.18.96,2.86,1.23,5.35,3.01,7.42,5.29,2.45,2.71,3.7,6.32,3.7,10.73,0,5.19-1.5,9.5-4.47,12.81-2.75,3.07-6.3,5.24-10.55,6.46-3.77,1.08-7.88,1.62-12.22,1.62Z"/>
      </g>
      <g>
        <path class="cls-4" d="M43.96,63.28c-2.58,0-4.76-1.92-5.09-4.48l-.66-5.18h-10.04l-3.92,7.03c-.91,1.63-2.62,2.63-4.48,2.63H6.67c-1.85,0-3.55-.99-4.46-2.59-.91-1.6-.89-3.58.05-5.16L29.18,10.25c.93-1.56,2.6-2.51,4.41-2.51h15.17c2.52,0,4.66,1.82,5.07,4.31l7.39,45.27c.24,1.49-.18,3-1.15,4.15-.97,1.15-2.41,1.81-3.91,1.81h-12.19Z"/>
        <path class="cls-4" d="M74.4,64.06c-2.5,0-5.17-.25-7.94-.74-2.69-.48-5.25-1.09-7.61-1.83-2.7-.84-4.21-3.71-3.37-6.42l2.85-9.22c.47-1.53,1.64-2.75,3.14-3.3.57-.21,1.17-.31,1.76-.31.97,0,1.94.28,2.77.81.38.24,1.32.72,3.35,1.18,1.76.4,3.46.6,5.04.6,1.16,0,2.22-.1,3.17-.29-.88-.4-2.06-.92-3.66-1.58-3.81-1.58-6.66-3.35-8.72-5.43-2.54-2.56-3.83-6.01-3.83-10.27,0-9.03,4.48-13.68,8.24-15.99,4.66-2.86,10.4-4.31,17.07-4.31,7.21,0,12.46.82,16.05,2.5,2.34,1.1,3.5,3.77,2.71,6.23l-2.91,9.01c-.45,1.4-1.49,2.54-2.84,3.13-.65.28-1.35.42-2.04.42-.75,0-1.49-.16-2.18-.49-2.06-.97-4.44-1.5-7.1-1.58.72.32,1.45.64,2.18.96,2.86,1.23,5.35,3.01,7.42,5.29,2.45,2.71,3.7,6.32,3.7,10.73,0,5.19-1.5,9.5-4.47,12.81-2.75,3.07-6.3,5.24-10.55,6.46-3.77,1.08-7.88,1.62-12.22,1.62Z"/>
      </g>
      <g>
        <path class="cls-4" d="M43.45,62.25c-2.58,0-4.76-1.92-5.09-4.48l-.66-5.18h-10.04l-3.92,7.03c-.91,1.63-2.62,2.63-4.48,2.63H6.16c-1.85,0-3.55-.99-4.46-2.59-.91-1.6-.89-3.58.05-5.16L28.67,9.22c.93-1.56,2.6-2.51,4.41-2.51h15.17c2.52,0,4.66,1.82,5.07,4.31l7.39,45.27c.24,1.49-.18,3-1.15,4.15-.97,1.15-2.41,1.81-3.91,1.81h-12.19Z"/>
        <path class="cls-4" d="M73.89,63.03c-2.5,0-5.17-.25-7.94-.74-2.69-.48-5.25-1.09-7.61-1.83-2.7-.84-4.21-3.71-3.37-6.42l2.85-9.22c.47-1.53,1.64-2.75,3.14-3.3.57-.21,1.17-.31,1.76-.31.97,0,1.94.28,2.77.81.38.24,1.32.72,3.35,1.18,1.76.4,3.46.6,5.04.6,1.16,0,2.22-.1,3.17-.29-.88-.4-2.06-.92-3.66-1.58-3.81-1.58-6.66-3.35-8.72-5.43-2.54-2.56-3.83-6.01-3.83-10.27,0-9.03,4.48-13.68,8.24-15.99,4.66-2.86,10.4-4.31,17.07-4.31,7.21,0,12.46.82,16.05,2.5,2.34,1.1,3.5,3.77,2.71,6.23l-2.91,9.01c-.45,1.4-1.49,2.54-2.84,3.13-.65.28-1.35.42-2.04.42-.75,0-1.49-.16-2.18-.49-2.06-.97-4.44-1.5-7.1-1.58.72.32,1.45.64,2.18.96,2.86,1.23,5.35,3.01,7.42,5.29,2.45,2.71,3.7,6.32,3.7,10.73,0,5.19-1.5,9.5-4.47,12.81-2.75,3.07-6.3,5.24-10.55,6.46-3.77,1.08-7.88,1.62-12.22,1.62Z"/>
      </g>
      <g>
        <path class="cls-4" d="M42.94,61.23c-2.58,0-4.76-1.92-5.09-4.48l-.66-5.18h-10.04l-3.92,7.03c-.91,1.63-2.62,2.63-4.48,2.63H5.65c-1.85,0-3.55-.99-4.46-2.59-.91-1.6-.89-3.58.05-5.16L28.15,8.2c.93-1.56,2.6-2.51,4.41-2.51h15.17c2.52,0,4.66,1.82,5.07,4.31l7.39,45.27c.24,1.49-.18,3-1.15,4.15-.97,1.15-2.41,1.81-3.91,1.81h-12.19Z"/>
        <path class="cls-4" d="M73.37,62c-2.5,0-5.17-.25-7.94-.74-2.69-.48-5.25-1.09-7.61-1.83-2.7-.84-4.21-3.71-3.37-6.42l2.85-9.22c.47-1.53,1.64-2.75,3.14-3.3.57-.21,1.17-.31,1.76-.31.97,0,1.94.28,2.77.81.38.24,1.32.72,3.35,1.18,1.76.4,3.46.6,5.04.6,1.16,0,2.22-.1,3.17-.29-.88-.4-2.06-.92-3.66-1.58-3.81-1.58-6.66-3.35-8.72-5.43-2.54-2.56-3.83-6.01-3.83-10.27,0-9.03,4.48-13.68,8.24-15.99,4.66-2.86,10.4-4.31,17.07-4.31,7.21,0,12.46.82,16.05,2.5,2.34,1.1,3.5,3.77,2.71,6.23l-2.91,9.01c-.45,1.4-1.49,2.54-2.84,3.13-.65.28-1.35.42-2.04.42-.75,0-1.49-.16-2.18-.49-2.06-.97-4.44-1.5-7.1-1.58.72.32,1.45.64,2.18.96,2.86,1.23,5.35,3.01,7.42,5.29,2.45,2.71,3.7,6.32,3.7,10.73,0,5.19-1.5,9.5-4.47,12.81-2.75,3.07-6.3,5.24-10.55,6.46-3.77,1.08-7.88,1.62-12.22,1.62Z"/>
      </g>
      <g>
        <path class="cls-4" d="M42.42,60.2c-2.58,0-4.76-1.92-5.09-4.48l-.66-5.18h-10.04l-3.92,7.03c-.91,1.63-2.62,2.63-4.48,2.63H5.13c-1.85,0-3.55-.99-4.46-2.59-.91-1.6-.89-3.58.05-5.16L27.64,7.17c.93-1.56,2.6-2.51,4.41-2.51h15.17c2.52,0,4.66,1.82,5.07,4.31l7.39,45.27c.24,1.49-.18,3-1.15,4.15-.97,1.15-2.41,1.81-3.91,1.81h-12.19Z"/>
        <path class="cls-4" d="M72.86,60.98c-2.5,0-5.17-.25-7.94-.74-2.69-.48-5.25-1.09-7.61-1.83-2.7-.84-4.21-3.71-3.37-6.42l2.85-9.22c.47-1.53,1.64-2.75,3.14-3.3.57-.21,1.17-.31,1.76-.31.97,0,1.94.28,2.77.81.38.24,1.32.72,3.35,1.18,1.76.4,3.46.6,5.04.6,1.16,0,2.22-.1,3.17-.29-.88-.4-2.06-.92-3.66-1.58-3.81-1.58-6.66-3.35-8.72-5.43-2.54-2.56-3.83-6.01-3.83-10.27,0-9.03,4.48-13.68,8.24-15.99,4.66-2.86,10.4-4.31,17.07-4.31,7.21,0,12.46.82,16.05,2.5,2.34,1.1,3.5,3.77,2.71,6.23l-2.91,9.01c-.45,1.4-1.49,2.54-2.84,3.13-.65.28-1.35.42-2.04.42-.75,0-1.49-.16-2.18-.49-2.06-.97-4.44-1.5-7.1-1.58.72.32,1.45.64,2.18.96,2.86,1.23,5.35,3.01,7.42,5.29,2.45,2.71,3.7,6.32,3.7,10.73,0,5.19-1.5,9.5-4.47,12.81-2.75,3.07-6.3,5.24-10.55,6.46-3.77,1.08-7.88,1.62-12.22,1.62Z"/>
      </g>
    </g>
    <text class="cls-1" transform="translate(7.79 55.07)"><tspan x="0" y="0">AS</tspan></text>
  </g>
</svg>